<svg width="21" height="20" viewBox="0 0 21 20" fill="none" xmlns="http://www.w3.org/2000/svg">
<path fill-rule="evenodd" clip-rule="evenodd" d="M6.05556 4.44444C6.05556 3.2657 6.52381 2.13524 7.3573 1.30175C8.1908 0.468252 9.32126 0 10.5 0C11.6787 0 12.8092 0.468252 13.6427 1.30175C14.4762 2.13524 14.9444 3.2657 14.9444 4.44444C14.9444 5.62318 14.4762 6.75365 13.6427 7.58714C12.8092 8.42064 11.6787 8.88889 10.5 8.88889C9.32126 8.88889 8.1908 8.42064 7.3573 7.58714C6.52381 6.75365 6.05556 5.62318 6.05556 4.44444ZM6.05556 11.1111C4.58213 11.1111 3.16905 11.6964 2.12718 12.7383C1.08532 13.7802 0.5 15.1932 0.5 16.6667C0.5 17.5507 0.85119 18.3986 1.47631 19.0237C2.10143 19.6488 2.94928 20 3.83333 20H17.1667C18.0507 20 18.8986 19.6488 19.5237 19.0237C20.1488 18.3986 20.5 17.5507 20.5 16.6667C20.5 15.1932 19.9147 13.7802 18.8728 12.7383C17.8309 11.6964 16.4179 11.1111 14.9444 11.1111H6.05556Z" fill="#F7F7F7"/>
</svg>
