<svg width="20" height="18" viewBox="0 0 20 18" fill="none" xmlns="http://www.w3.org/2000/svg">
<path d="M18 0C18.5304 0 19.0391 0.210714 19.4142 0.585786C19.7893 0.960859 20 1.46957 20 2V16C20 16.5304 19.7893 17.0391 19.4142 17.4142C19.0391 17.7893 18.5304 18 18 18H2C1.46957 18 0.960859 17.7893 0.585786 17.4142C0.210714 17.0391 0 16.5304 0 16V2C0 1.46957 0.210714 0.960859 0.585786 0.585786C0.960859 0.210714 1.46957 0 2 0H18ZM15 12H5C4.73478 12 4.48043 12.1054 4.29289 12.2929C4.10536 12.4804 4 12.7348 4 13C4 13.2652 4.10536 13.5196 4.29289 13.7071C4.48043 13.8946 4.73478 14 5 14H15C15.2652 14 15.5196 13.8946 15.7071 13.7071C15.8946 13.5196 16 13.2652 16 13C16 12.7348 15.8946 12.4804 15.7071 12.2929C15.5196 12.1054 15.2652 12 15 12ZM8 4H6C5.49542 3.99984 5.00943 4.19041 4.63945 4.5335C4.26947 4.87659 4.04284 5.34685 4.005 5.85L4 6V8C3.99984 8.50458 4.19041 8.99057 4.5335 9.36055C4.87659 9.73053 5.34684 9.95716 5.85 9.995L6 10H8C8.50458 10.0002 8.99057 9.80959 9.36055 9.4665C9.73053 9.12341 9.95716 8.65316 9.995 8.15L10 8V6C10.0002 5.49542 9.80959 5.00943 9.4665 4.63945C9.12341 4.26947 8.65316 4.04284 8.15 4.005L8 4ZM15 8H12C11.7451 8.00028 11.5 8.09788 11.3146 8.27285C11.1293 8.44782 11.0178 8.68695 11.0028 8.94139C10.9879 9.19584 11.0707 9.44638 11.2343 9.64183C11.3979 9.83729 11.6299 9.9629 11.883 9.993L12 10H15C15.2549 9.99972 15.5 9.90212 15.6854 9.72715C15.8707 9.55218 15.9822 9.31305 15.9972 9.05861C16.0121 8.80416 15.9293 8.55362 15.7657 8.35817C15.6021 8.16271 15.3701 8.0371 15.117 8.007L15 8ZM8 6V8H6V6H8ZM15 4H12C11.7348 4 11.4804 4.10536 11.2929 4.29289C11.1054 4.48043 11 4.73478 11 5C11 5.26522 11.1054 5.51957 11.2929 5.70711C11.4804 5.89464 11.7348 6 12 6H15C15.2652 6 15.5196 5.89464 15.7071 5.70711C15.8946 5.51957 16 5.26522 16 5C16 4.73478 15.8946 4.48043 15.7071 4.29289C15.5196 4.10536 15.2652 4 15 4Z" fill="#F7F7F7"/>
</svg>
