<svg width="19" height="20" viewBox="0 0 19 20" fill="none" xmlns="http://www.w3.org/2000/svg">
<path d="M0.5 17.7143V7.42857C0.5 7.06666 0.579875 6.72381 0.739625 6.4C0.899375 6.07619 1.1195 5.80952 1.4 5.6L8.15 0.457143C8.54375 0.152381 8.99375 0 9.5 0C10.0062 0 10.4562 0.152381 10.85 0.457143L17.6 5.6C17.8812 5.80952 18.1017 6.07619 18.2615 6.4C18.4212 6.72381 18.5007 7.06666 18.5 7.42857V17.7143C18.5 18.3429 18.2795 18.8811 17.8385 19.3291C17.3975 19.7771 16.868 20.0008 16.25 20H12.875C12.5562 20 12.2892 19.8903 12.074 19.6709C11.8587 19.4514 11.7507 19.1802 11.75 18.8571V13.1429C11.75 12.819 11.642 12.5478 11.426 12.3291C11.21 12.1105 10.943 12.0008 10.625 12H8.375C8.05625 12 7.78925 12.1097 7.574 12.3291C7.35875 12.5486 7.25075 12.8198 7.25 13.1429V18.8571C7.25 19.1809 7.142 19.4526 6.926 19.672C6.71 19.8914 6.443 20.0008 6.125 20H2.75C2.13125 20 1.60175 19.7764 1.1615 19.3291C0.72125 18.8819 0.50075 18.3436 0.5 17.7143Z" fill="#F7F7F7"/>
</svg>
