<svg width="21" height="20" viewBox="0 0 21 20" fill="none" xmlns="http://www.w3.org/2000/svg">
<path d="M17.4906 19.4662L13.3527 15.3532L12.4122 18.2104C12.3077 18.5034 12.1092 18.6449 11.8166 18.6349C11.524 18.6248 11.3255 18.4728 11.221 18.179L8.36834 8.66562C8.28474 8.43537 8.33699 8.22606 8.52508 8.03768C8.71317 7.84929 8.92215 7.79696 9.15204 7.88069L18.6505 10.7378C18.9431 10.8425 19.0948 11.0413 19.1056 11.3344C19.1165 11.6274 18.9752 11.8263 18.6818 11.9309L15.8292 12.8728L19.9671 17.0173C20.3224 17.3731 20.5 17.7813 20.5 18.2418C20.5 18.7023 20.3224 19.1104 19.9671 19.4662C19.6118 19.8221 19.1993 20 18.7295 20C18.2597 20 17.8467 19.8221 17.4906 19.4662ZM0.5 7.53532C0.5 5.44218 1.23145 3.663 2.69436 2.1978C4.15726 0.732601 5.93365 0 8.02351 0C9.63271 0 11.0697 0.445003 12.3345 1.33501C13.5993 2.22501 14.5029 3.38127 15.0455 4.80377C15.1708 5.13867 15.1658 5.46311 15.0304 5.77708C14.895 6.09105 14.6597 6.31083 14.3244 6.43642C13.9892 6.56201 13.6707 6.55699 13.369 6.42135C13.0672 6.28571 12.8528 6.05003 12.7257 5.71429C12.3704 4.77237 11.7644 4.00293 10.9075 3.40597C10.0507 2.809 9.08934 2.51094 8.02351 2.51177C6.6442 2.51177 5.46343 3.00366 4.48119 3.98744C3.49896 4.97122 3.00784 6.15385 3.00784 7.53532C3.00784 8.60283 3.30585 9.56567 3.90188 10.4239C4.49791 11.2821 5.26573 11.8891 6.20533 12.2449C6.53971 12.3705 6.77503 12.5903 6.91128 12.9042C7.04754 13.2182 7.05256 13.5426 6.92633 13.8776C6.8001 14.2125 6.58067 14.4427 6.26803 14.5683C5.95538 14.6939 5.63145 14.6939 5.29624 14.5683C3.85423 14.0241 2.69436 13.1081 1.81661 11.8204C0.938872 10.5327 0.5 9.10434 0.5 7.53532Z" fill="#F7F7F7"/>
</svg>
